<svg xmlns="http://www.w3.org/2000/svg" enable-background="new 0 0 64 64" viewBox="0 0 64 64" id="pharmacy"><rect width="39.29" height="13" x="11.65" y="15.49" fill="#e4f3ff"></rect><rect width="19.64" height="11.59" x="31.29" y="15.49" fill="#c3dafd"></rect><path fill="#ff5c5c" d="M35.83,27.58h-9.07v-6.04h-6.04v-9.07h6.04V6.42h9.07v6.04h6.04v9.07h-6.04V27.58z M35.83,27.58"></path><path fill="#ff3838" d="M35.83,12.46V6.42h-4.53v21.16h4.53v-6.04h6.04v-9.07H35.83z M35.83,12.46"></path><path fill="#c3dafd" d="M29.78,24.55h3.02v-6.04h6.04v-3.02H32.8V9.44h-3.02v6.04h-6.04v3.02h6.04V24.55z M29.78,24.55"></path><path fill="#c3dafd" d="M32.8 15.49V9.44h-1.51v15.11h1.51v-6.04h6.04v-3.02H32.8zM13.16 27.07V58h13.6l0 0 4.53-2.69L35.83 58l0 0h13.6V27.07C47.96 27.07 15.69 27.07 13.16 27.07L13.16 27.07zM13.16 27.07"></path><path fill="#c3dafd" d="M31.29,27.07v27.22l4.53,3.7l0,0h13.6V27.07C48.62,27.07,32.6,27.07,31.29,27.07L31.29,27.07z M31.29,27.07"></path><path fill="#ff8b8b" d="M12.4,37.65c-2.09,0-3.78-1.69-3.78-3.78v-6.8h7.56v6.8C16.18,35.96,14.49,37.65,12.4,37.65L12.4,37.65z
	 M12.4,37.65"></path><path fill="#ff5c5c" d="M19.96,37.65c-2.09,0-3.78-1.69-3.78-3.78v-6.8h7.56v6.8C23.74,35.96,22.05,37.65,19.96,37.65L19.96,37.65z
	 M19.96,37.65"></path><path fill="#ff8b8b" d="M27.51,37.65c-2.09,0-3.78-1.69-3.78-3.78v-6.8h7.56v6.8C31.29,35.96,29.6,37.65,27.51,37.65L27.51,37.65z
	 M27.51,37.65"></path><path fill="#ff5c5c" d="M35.07,37.65c-2.09,0-3.78-1.69-3.78-3.78v-6.8h7.56v6.8C38.85,35.96,37.16,37.65,35.07,37.65L35.07,37.65z
	 M35.07,37.65"></path><path fill="#ff3838" d="M42.63,37.65c-2.09,0-3.78-1.69-3.78-3.78v-6.8h7.56v6.8C46.4,35.96,44.71,37.65,42.63,37.65L42.63,37.65z
	 M42.63,37.65"></path><path fill="#ff5c5c" d="M50.18,37.65c-2.09,0-3.78-1.69-3.78-3.78v-6.8h7.56v6.8C53.96,35.96,52.27,37.65,50.18,37.65L50.18,37.65z
	 M50.18,37.65"></path><rect width="9.07" height="16.72" x="26.76" y="41.28" fill="#457899"></rect><rect width="4.53" height="16.72" x="31.29" y="41.28" fill="#365c75"></rect></svg>